<?xml version="1.0" standalone="no"?>
<!DOCTYPE svg PUBLIC "-//W3C//DTD SVG 20010904//EN"
 "http://www.w3.org/TR/2001/REC-SVG-20010904/DTD/svg10.dtd">
<svg version="1.0" xmlns="http://www.w3.org/2000/svg"
 width="420.000000pt" height="420.000000pt" viewBox="0 0 420.000000 420.000000"
 preserveAspectRatio="xMidYMid meet">
<metadata>
Created by potrace 1.14, written by Peter Selinger 2001-2017
</metadata>
<g transform="translate(0.000000,420.000000) scale(0.100000,-0.100000)"
fill="#000000" stroke="none">
<path d="M0 2100 l0 -2100 369 0 370 0 11 57 c28 134 83 288 131 366 l29 48
-10 182 c-9 164 -15 267 -36 659 l-6 118 30 30 c29 28 35 30 107 30 l77 0 -7
28 c-23 90 -46 218 -52 290 l-6 83 33 -31 c17 -16 36 -30 40 -30 21 0 90 -234
90 -306 0 -22 4 -24 46 -24 l46 0 -6 227 -6 227 26 38 c15 21 30 38 35 38 4 0
23 15 41 33 52 52 91 75 154 92 80 21 166 19 253 -5 83 -23 104 -21 99 12 -6
47 -192 82 -308 59 -34 -7 -64 -10 -67 -7 -6 6 61 141 101 204 59 95 166 155
361 207 114 30 142 45 151 80 4 16 13 25 26 25 22 0 68 -43 68 -64 0 -17 61
-97 134 -176 76 -82 211 -240 214 -250 2 -6 -7 -10 -20 -10 -43 0 -162 -38
-175 -56 -11 -15 -11 -21 2 -33 13 -13 21 -13 70 3 66 20 145 31 177 23 13 -4
53 -29 88 -57 36 -27 71 -50 78 -50 6 0 12 -4 12 -8 0 -9 89 -51 103 -48 5 0
13 -7 18 -16 6 -10 16 -18 23 -18 24 0 27 -31 27 -253 l0 -217 44 0 c41 0 45
2 45 25 0 14 13 80 30 148 31 127 33 131 119 199 21 17 8 -127 -24 -267 -14
-60 -25 -111 -25 -112 0 -2 33 -3 74 -3 71 0 75 -2 100 -31 16 -19 26 -43 26
-63 0 -36 -24 -494 -40 -772 l-11 -180 40 -80 c38 -76 75 -187 101 -307 l13
-57 384 0 383 0 0 2100 0 2100 -2100 0 -2100 0 0 -2100z m1110 -175 c19 -30
38 -55 43 -55 4 0 7 -22 7 -50 0 -58 -14 -65 -34 -17 -22 53 -75 109 -97 102
-17 -6 -18 -3 -8 21 26 70 44 69 89 -1z m2054 33 c20 -28 21 -59 2 -52 -15 6
-70 -54 -94 -102 -19 -41 -32 -44 -32 -8 0 25 28 84 40 84 3 0 17 22 31 50 13
27 27 50 31 50 4 0 14 -10 22 -22z"/>
<path d="M1545 1981 c-77 -20 -145 -82 -145 -132 0 -22 2 -21 24 12 26 38 56
61 94 73 23 8 23 7 8 -23 -36 -69 -4 -167 66 -204 85 -43 200 12 214 103 4 22
10 40 14 40 5 0 22 -21 39 -47 17 -25 31 -39 31 -30 0 56 -72 147 -144 182
-55 27 -151 39 -201 26z m86 -57 c17 -21 0 -49 -32 -49 -27 0 -37 28 -19 50
16 19 34 19 51 -1z m129 -173 c0 -6 -10 -17 -22 -25 -30 -21 -52 -2 -24 20 23
16 46 19 46 5z"/>
<path d="M2503 1976 c-82 -27 -157 -93 -183 -161 -20 -52 -9 -58 21 -12 17 26
34 47 39 47 4 0 10 -18 14 -39 15 -94 127 -148 212 -102 22 11 48 32 58 47 27
38 32 112 12 152 -9 18 -14 32 -11 32 23 0 89 -47 110 -77 23 -34 25 -35 25
-14 0 34 -44 87 -91 112 -51 26 -151 33 -206 15z m2 -76 c0 -30 -35 -40 -55
-15 -11 13 -10 18 6 30 27 21 49 14 49 -15z m135 -149 c0 -6 -10 -17 -22 -25
-27 -19 -48 -5 -28 19 14 16 50 21 50 6z"/>
<path d="M936 82 c-8 -13 2 -41 22 -64 14 -17 81 -18 1137 -18 1056 0 1123 1
1137 18 9 9 19 28 23 41 l7 23 -32 -23 -32 -24 -1101 4 -1102 3 -26 25 c-15
14 -29 20 -33 15z"/>
</g>
</svg>
